<svg width="32" height="32" viewBox="0 0 32 32" fill="none" xmlns="http://www.w3.org/2000/svg">
  <!-- Background gradient -->
  <defs>
    <linearGradient id="cloudGradient" x1="0%" y1="0%" x2="100%" y2="100%">
      <stop offset="0%" style="stop-color:#4A90E2;stop-opacity:1" />
      <stop offset="100%" style="stop-color:#2C5AA0;stop-opacity:1" />
    </linearGradient>
    <linearGradient id="textGradient" x1="0%" y1="0%" x2="100%" y2="100%">
      <stop offset="0%" style="stop-color:#FFFFFF;stop-opacity:1" />
      <stop offset="100%" style="stop-color:#E8F4FD;stop-opacity:1" />
    </linearGradient>
  </defs>
  
  <!-- Background circle -->
  <circle cx="16" cy="16" r="16" fill="url(#cloudGradient)"/>
  
  <!-- Cloud shape background -->
  <path d="M8 20c-2.2 0-4-1.8-4-4 0-1.5 0.8-2.8 2-3.5C6.2 10.6 8 9 10.2 9c1.5 0 2.8 0.8 3.5 2 0.5-0.1 1-0.2 1.5-0.2 2.8 0 5 2.2 5 5 0 0.3 0 0.6-0.1 0.9 1.2 0.6 2 1.8 2 3.2 0 2-1.6 3.6-3.6 3.6H8z" fill="rgba(255,255,255,0.15)" stroke="rgba(255,255,255,0.3)" stroke-width="0.5"/>
  
  <!-- Letter J -->
  <path d="M11 10v8c0 1.5-1.2 2.7-2.7 2.7S5.6 19.5 5.6 18" stroke="url(#textGradient)" stroke-width="2" stroke-linecap="round" fill="none"/>
  
  <!-- Letter X -->
  <path d="M18 10l6 6m-6 0l6-6" stroke="url(#textGradient)" stroke-width="2" stroke-linecap="round"/>
  
  <!-- Small cloud accent -->
  <ellipse cx="25" cy="12" rx="3" ry="2" fill="rgba(255,255,255,0.2)"/>
  <ellipse cx="23" cy="11" rx="2" ry="1.5" fill="rgba(255,255,255,0.25)"/>
</svg>